<?xml version="1.0" encoding="iso-8859-1"?>
<!-- Generator: Adobe Illustrator 19.0.0, SVG Export Plug-In . SVG Version: 6.00 Build 0)  -->
<svg version="1.1" id="Capa_1" xmlns="http://www.w3.org/2000/svg" xmlns:xlink="http://www.w3.org/1999/xlink" x="0px" y="0px"
	 viewBox="0 0 489.291 489.291" style="enable-background:new 0 0 489.291 489.291;" xml:space="preserve">
<path style="fill:#37474F;" d="M362.667,31.199c-70.092,0.088-127.113,56.463-128,126.549l-71.765,87.744
	c-23.95-3.482-48.357,1.683-68.843,14.571l-78.933-35.904c-3.3-1.531-7.156-1.249-10.197,0.747c-3.061,1.953-4.917,5.329-4.928,8.96
	v128c-0.006,4.597,2.934,8.681,7.296,10.133l41.6,13.845c18.742,55.551,78.968,85.391,134.52,66.649
	c36.179-12.206,63.016-42.902,70.28-80.388l119.637-85.483c70.378-6.655,122.036-69.104,115.381-139.482
	C482.548,81.937,428.157,31.907,362.667,31.199z"/>
<circle style="fill:#FFFFFF;" cx="362.667" cy="159.199" r="64"/>
<circle style="fill:#37474F;" cx="362.667" cy="159.199" r="42.667"/>
<path style="fill:#FFFFFF;" d="M149.333,415.199c-9.609-0.015-19.09-2.203-27.733-6.4c-5.302-2.568-7.518-8.949-4.949-14.251
	c2.568-5.302,8.949-7.518,14.251-4.949c20.922,10.841,46.672,2.668,57.512-18.254c10.841-20.922,2.668-46.672-18.254-57.513
	c-0.703-0.364-1.416-0.709-2.139-1.034c-5.302-2.568-7.518-8.949-4.949-14.251c2.568-5.302,8.949-7.518,14.251-4.949
	c31.825,15.38,45.156,53.646,29.777,85.471c-7.384,15.28-20.535,27.002-36.561,32.587
	C163.719,414.02,156.55,415.217,149.333,415.199z"/>
<g>
</g>
<g>
</g>
<g>
</g>
<g>
</g>
<g>
</g>
<g>
</g>
<g>
</g>
<g>
</g>
<g>
</g>
<g>
</g>
<g>
</g>
<g>
</g>
<g>
</g>
<g>
</g>
<g>
</g>
</svg>
