<svg width="1159" height="857" viewBox="0 0 1159 857" fill="none" xmlns="http://www.w3.org/2000/svg">
<path d="M550.444 366.469C566.284 373.446 566.385 395.884 550.609 403.002L105.481 603.853C85.0149 613.088 67.2085 586.78 83.388 571.211L366.355 298.936C372.199 293.313 380.862 291.775 388.284 295.045L550.444 366.469Z" fill="#7FDEF2"/>
<path d="M633.386 367.354C617.033 373.023 615.112 395.379 630.259 403.754L1057.63 640.047C1077.28 650.911 1097.16 626.134 1082.3 609.304L822.346 314.975C816.977 308.896 808.468 306.661 800.805 309.318L633.386 367.354Z" fill="#709DB0"/>
<path d="M582.44 137.606C592.083 145.604 592.083 160.396 582.44 168.394L474.018 258.323C460.983 269.134 441.25 259.864 441.25 242.929V63.071C441.25 46.1359 460.983 36.8655 474.018 47.6771L582.44 137.606Z" fill="#709DB0"/>
<path d="M595.928 168.481C586.144 160.479 586.144 145.521 595.928 137.519L706.338 47.213C719.397 36.5318 739 45.8232 739 62.6942V243.306C739 260.177 719.397 269.468 706.338 258.787L595.928 168.481Z" fill="#7FDEF2"/>
</svg>
